<?xml version="1.0" encoding="UTF-8"?>
<svg width="1567px" height="464px" viewBox="0 0 1567 464" version="1.1" xmlns="http://www.w3.org/2000/svg" xmlns:xlink="http://www.w3.org/1999/xlink">
    <!-- Generator: Sketch 53 (72520) - https://sketchapp.com -->
    <title>Group 39</title>
    <desc>Created with Sketch.</desc>
    <g id="Page-1" stroke="none" stroke-width="1" fill="none" fill-rule="evenodd">
        <g id="Group-39" transform="translate(0.712535, 0.427521)">
            <polygon id="Path-6" fill="#0454DF" fill-rule="nonzero" transform="translate(782.936788, 227.580553) scale(-1, 1) translate(-782.936788, -227.580553) " points="1559.70135 388.138535 1565.87358 396.006423 1506.08081 442.912816 1387.56756 420.121806 1267.51985 432.523429 1150.30699 455.161105 1028.53715 432.611136 909.965847 442.575112 789.658541 441.064978 669.673857 411.947356 550.078608 386.319803 440.398855 329.226232 316.308871 292.049476 209.992099 198.771554 77.2618668 133.914736 0 5.14495755 8.57492926 4.54747351e-13 84.3130624 126.230222 215.58283 190.373404 321.266058 283.095481 444.176075 319.918725 553.496321 376.825155 671.83511 402.183467 671.966628 402.213511 790.916388 431.079979 909.609083 432.569846 1029.03777 422.533821 1150.26794 444.983852 1266.05508 422.621529 1388.00737 410.023152 1503.49412 432.232142"></polygon>
            <circle id="Oval" stroke="#0454DF" stroke-width="8" fill="#055FFB" transform="translate(1486.787465, 127.072479) scale(-1, 1) translate(-1486.787465, -127.072479) " cx="1486.78746" cy="127.072479" r="11.5"></circle>
            <circle id="Oval" stroke="#0454DF" stroke-width="8" fill="#055FFB" transform="translate(1356.787465, 192.072479) scale(-1, 1) translate(-1356.787465, -192.072479) " cx="1356.78746" cy="192.072479" r="11.5"></circle>
            <circle id="Oval" stroke="#0454DF" stroke-width="8" fill="#055FFB" transform="translate(1249.787465, 285.072479) scale(-1, 1) translate(-1249.787465, -285.072479) " cx="1249.78746" cy="285.072479" r="11.5"></circle>
            <circle id="Oval" stroke="#0454DF" stroke-width="8" fill="#055FFB" transform="translate(1125.787465, 324.072479) scale(-1, 1) translate(-1125.787465, -324.072479) " cx="1125.78746" cy="324.072479" r="11.5"></circle>
            <circle id="Oval" stroke="#0454DF" stroke-width="8" fill="#055FFB" transform="translate(1016.787465, 382.072479) scale(-1, 1) translate(-1016.787465, -382.072479) " cx="1016.78746" cy="382.072479" r="11.5"></circle>
            <circle id="Oval" stroke="#0454DF" stroke-width="8" fill="#055FFB" transform="translate(896.787465, 407.072479) scale(-1, 1) translate(-896.787465, -407.072479) " cx="896.787465" cy="407.072479" r="11.5"></circle>
            <circle id="Oval" stroke="#0454DF" stroke-width="8" fill="#055FFB" transform="translate(776.787465, 435.072479) scale(-1, 1) translate(-776.787465, -435.072479) " cx="776.787465" cy="435.072479" r="11.5"></circle>
            <circle id="Oval" stroke="#0454DF" stroke-width="8" fill="#055FFB" transform="translate(657.787465, 436.072479) scale(-1, 1) translate(-657.787465, -436.072479) " cx="657.787465" cy="436.072479" r="11.5"></circle>
            <circle id="Oval" stroke="#0454DF" stroke-width="8" fill="#055FFB" transform="translate(538.787465, 426.072479) scale(-1, 1) translate(-538.787465, -426.072479) " cx="538.787465" cy="426.072479" r="11.5"></circle>
            <circle id="Oval" stroke="#0454DF" stroke-width="8" fill="#055FFB" transform="translate(419.787465, 448.072479) scale(-1, 1) translate(-419.787465, -448.072479) " cx="419.787465" cy="448.072479" r="11.5"></circle>
            <circle id="Oval" stroke="#0454DF" stroke-width="8" fill="#055FFB" transform="translate(299.787465, 427.072479) scale(-1, 1) translate(-299.787465, -427.072479) " cx="299.787465" cy="427.072479" r="11.5"></circle>
            <circle id="Oval" stroke="#0454DF" stroke-width="8" fill="#055FFB" transform="translate(181.787465, 414.072479) scale(-1, 1) translate(-181.787465, -414.072479) " cx="181.787465" cy="414.072479" r="11.5"></circle>
            <circle id="Oval" stroke="#0454DF" stroke-width="8" fill="#055FFB" transform="translate(61.787465, 435.072479) scale(-1, 1) translate(-61.787465, -435.072479) " cx="61.7874646" cy="435.072479" r="11.5"></circle>
        </g>
    </g>
</svg>