<svg xmlns="http://www.w3.org/2000/svg" width="415.901" height="416.002" viewBox="0 0 415.901 416.002">
  <path id="cube" d="M440.8,129.5,261.7,49.2a13.9,13.9,0,0,0-11.3,0L71.2,129.5c-6,2.7-6.2,11.8-.4,14.8l178.7,94.1a13.628,13.628,0,0,0,13,0l178.7-94.1c5.8-3,5.6-12.1-.4-14.8ZM280.2,462.9l180.1-95.3a8.076,8.076,0,0,0,3.6-6.8V175.9c0-5.9-5.8-9.7-10.7-7.1L273.1,261.6a7.89,7.89,0,0,0-4.2,7.1V456c.1,6.2,6.4,10,11.3,6.9ZM48,175.9V360.7a8.076,8.076,0,0,0,3.6,6.8l180.1,95.3c5,3.2,11.2-.6,11.2-6.8V268.7a7.89,7.89,0,0,0-4.2-7.1l-180-92.8c-4.9-2.6-10.7,1.3-10.7,7.1Z" transform="translate(-48 -48)" fill="#fff"/>
</svg>
