<svg id="undraw_investing_7u74" xmlns="http://www.w3.org/2000/svg" width="789.617" height="651.016" viewBox="0 0 789.617 651.016">
  <path id="Path_88" data-name="Path 88" d="M321.941,637.513s293.782-245.186,462.982,0" transform="translate(-173.063 -133.388)" fill="#f2f2f2"/>
  <ellipse id="Ellipse_4" data-name="Ellipse 4" cx="136.067" cy="21.205" rx="136.067" ry="21.205" transform="translate(494.894 608.606)" fill="#f2f2f2"/>
  <ellipse id="Ellipse_5" data-name="Ellipse 5" cx="136.067" cy="21.205" rx="136.067" ry="21.205" transform="translate(516.982 600.654)" fill="none" stroke="#3f3d56" stroke-miterlimit="10" stroke-width="1"/>
  <path id="Path_89" data-name="Path 89" d="M956.856,533.317A13.72,13.72,0,1,0,958.683,507l.343,7.062-3.341-6.052a13.668,13.668,0,0,0-7.043,7.728,13.451,13.451,0,0,0-.789,3.711,13.718,13.718,0,0,0,9,13.865Z" transform="translate(-245.944 -130.844)" fill="#57b894"/>
  <path id="Path_90" data-name="Path 90" d="M976.417,613.67c-1.179-6.006,3.931-11.33,8.979-14.791s10.947-6.861,12.669-12.734c2.475-8.441-4.9-16.171-10.637-22.837a82.607,82.607,0,0,1-10.893-16.189,22.288,22.288,0,0,1-2.605-7.361c-.453-3.742.75-7.465,1.961-11.034q6.051-17.834,12.94-35.368" transform="translate(-248.973 -129.29)" fill="none" stroke="#3f3d56" stroke-miterlimit="10" stroke-width="1"/>
  <path id="Path_91" data-name="Path 91" d="M957.495,531.259a13.721,13.721,0,1,0,1.827-26.314l.344,7.062-3.341-6.052a13.669,13.669,0,0,0-7.043,7.728,13.457,13.457,0,0,0-.789,3.711A13.718,13.718,0,0,0,957.495,531.259Z" transform="translate(-246.018 -130.605)" fill="none" stroke="#3f3d56" stroke-miterlimit="10" stroke-width="1"/>
  <path id="Path_92" data-name="Path 92" d="M974.751,489.4a13.7,13.7,0,0,1,9.876-8.7l1.13,6.714,2.094-7.051a13.719,13.719,0,1,1-13.1,9.038Z" transform="translate(-248.984 -127.778)" fill="#57b894"/>
  <path id="Path_93" data-name="Path 93" d="M975.6,486.659a13.7,13.7,0,0,1,9.876-8.7l1.13,6.714,2.094-7.051a13.719,13.719,0,1,1-13.1,9.038Z" transform="translate(-249.083 -127.458)" fill="none" stroke="#3f3d56" stroke-miterlimit="10" stroke-width="1"/>
  <path id="Path_94" data-name="Path 94" d="M985.3,569.172a13.719,13.719,0,0,0,12.143-24.407l-1.61,5.419-1.141-6.793a.239.239,0,0,0-.035-.013,13.72,13.72,0,0,0-9.357,25.795Z" transform="translate(-249.255 -135.019)" fill="#57b894"/>
  <path id="Path_95" data-name="Path 95" d="M986.041,566.393a13.719,13.719,0,0,0,12.143-24.407l-1.609,5.419-1.141-6.793a.236.236,0,0,0-.035-.013,13.72,13.72,0,1,0-9.357,25.794Z" transform="translate(-249.341 -134.695)" fill="none" stroke="#3f3d56" stroke-miterlimit="10" stroke-width="1"/>
  <path id="Path_96" data-name="Path 96" d="M970.3,596.348a13.713,13.713,0,1,0,2.644-10.744l6.113,9.2-8.353-4.883a13.592,13.592,0,0,0-.4,6.427Z" transform="translate(-248.537 -139.41)" fill="#57b894"/>
  <path id="Path_97" data-name="Path 97" d="M970.94,594.29a13.713,13.713,0,1,0,2.644-10.744l6.113,9.2-8.353-4.884a13.592,13.592,0,0,0-.4,6.427Z" transform="translate(-248.611 -139.17)" fill="none" stroke="#3f3d56" stroke-miterlimit="10" stroke-width="1"/>
  <path id="Path_98" data-name="Path 98" d="M955.2,637.3s12.107-4.745,15.756-7.343,18.624-5.7,19.529-1.534,18.2,20.725,4.526,20.835-31.761,2.243-35.4.024S955.2,637.3,955.2,637.3Z" transform="translate(-246.803 -144.781)" fill="#656380"/>
  <path id="Path_99" data-name="Path 99" d="M995.251,649.24c-13.669.11-31.761,2.243-35.4.024-2.773-1.689-3.879-7.751-4.248-10.548-.256.011-.4.016-.4.016s.767,9.765,4.409,11.983,21.734.086,35.4-.024c3.946-.032,5.309-1.436,5.234-3.515C999.7,648.432,998.193,649.216,995.251,649.24Z" transform="translate(-246.803 -146.217)" opacity="0.2"/>
  <rect id="Rectangle_34" data-name="Rectangle 34" width="53.013" height="139.602" rx="11.851" transform="translate(140.485 364.966)" fill="#1488ff"/>
  <rect id="Rectangle_35" data-name="Rectangle 35" width="53.013" height="223.539" rx="11.851" transform="translate(241.21 281.028)" fill="#1488ff"/>
  <rect id="Rectangle_36" data-name="Rectangle 36" width="53.013" height="281.854" rx="11.851" transform="translate(341.935 222.714)" fill="#1488ff"/>
  <rect id="Rectangle_37" data-name="Rectangle 37" width="53.013" height="337.518" rx="11.851" transform="translate(442.66 167.05)" fill="#1488ff"/>
  <rect id="Rectangle_38" data-name="Rectangle 38" width="53.013" height="434.709" rx="11.851" transform="translate(543.386 69.859)" fill="#1488ff"/>
  <rect id="Rectangle_39" data-name="Rectangle 39" width="53.013" height="139.602" rx="11.851" transform="translate(147.553 357.898)" fill="none" stroke="#3f3d56" stroke-miterlimit="10" stroke-width="1"/>
  <rect id="Rectangle_40" data-name="Rectangle 40" width="53.013" height="223.539" rx="11.851" transform="translate(248.279 273.96)" fill="none" stroke="#3f3d56" stroke-miterlimit="10" stroke-width="1"/>
  <rect id="Rectangle_41" data-name="Rectangle 41" width="53.013" height="281.854" rx="11.851" transform="translate(349.004 215.645)" fill="none" stroke="#3f3d56" stroke-miterlimit="10" stroke-width="1"/>
  <rect id="Rectangle_42" data-name="Rectangle 42" width="53.013" height="337.518" rx="11.851" transform="translate(449.729 159.981)" fill="none" stroke="#3f3d56" stroke-miterlimit="10" stroke-width="1"/>
  <rect id="Rectangle_43" data-name="Rectangle 43" width="53.013" height="434.709" rx="11.851" transform="translate(550.454 62.791)" fill="none" stroke="#3f3d56" stroke-miterlimit="10" stroke-width="1"/>
  <line id="Line_5" data-name="Line 5" x1="761" transform="translate(0 504.633)" fill="none" stroke="#3f3d56" stroke-miterlimit="10" stroke-width="1"/>
  <path id="Path_100" data-name="Path 100" d="M958.837,556.951s8.315,29.934-2.217,34.369-7.206-33.26-7.206-33.26Z" transform="translate(-246.071 -136.696)" fill="#a0616a"/>
  <path id="Path_101" data-name="Path 101" d="M871.551,774s-7.761-.554-10.532,1.109a6.689,6.689,0,0,1-5.543.554s-12.2-1.109-7.761,4.989,8.869,8.315,8.869,11.086,18.293,2.772,18.847,0,1.109-17.184,0-17.739S871.551,774,871.551,774Z" transform="translate(-234.174 -161.941)" fill="#575a89"/>
  <path id="Path_102" data-name="Path 102" d="M897.437,774s7.761-.554,10.532,1.109a6.689,6.689,0,0,0,5.543.554s12.2-1.109,7.761,4.989-8.869,8.315-8.869,11.087-18.293,2.772-18.847,0-1.109-17.184,0-17.739S897.437,774,897.437,774Z" transform="translate(-239.55 -161.941)" fill="#575a89"/>
  <path id="Path_103" data-name="Path 103" d="M848.788,549.206s-3.88,87.585-1.663,92.02,9.978,79.27,8.869,83.7-6.652,22.728,0,25.5,21.065,0,21.065,0,3.88-22.173,2.217-33.814-2.217-60.422-2.217-60.422l11.087-51,3.88,48.227s1.109,65.966-6.652,79.27,2.772,18.847,2.772,18.847,21.065,2.772,23.282,2.217-1.663-22.173,0-31.6,5.543-62.085,8.869-74.835,22.173-83.7,8.315-98.117S848.788,549.206,848.788,549.206Z" transform="translate(-234.138 -135.048)" fill="#3f3d56"/>
  <circle id="Ellipse_6" data-name="Ellipse 6" cx="19.402" cy="19.402" r="19.402" transform="translate(635.714 198.522)" fill="#a0616a"/>
  <path id="Path_104" data-name="Path 104" d="M878.584,337.773s3.326,26.608,1.663,27.162,29.38,0,29.38,0-6.1-16.076,0-28.825Z" transform="translate(-237.881 -110.98)" fill="#a0616a"/>
  <path id="Path_105" data-name="Path 105" d="M878.584,361.681s13.511-13.3,29.483,0l1.034,3.966-8.344-.085H878.584Z" transform="translate(-237.881 -113.269)" fill="#f2f2f2"/>
  <path id="Path_106" data-name="Path 106" d="M939.216,532.387c-1.281.255-4.418.776-8.509,1.4-13.62,2.057-37.755,5.172-38.609,3.038-1.109-2.772-4.989-12.75-7.761-8.315s-1.109,8.315-12.75,8.869c-7.921.377-19.435-.787-25.81-2.616-2.993-.859-4.856-1.862-4.679-2.927.554-3.326,6.652-66.52,6.652-72.618s2.217-35.477,2.217-35.477L834.037,392.39l-1.253-2.467s1.663-6.1,6.652-7.206,28.825-14.967,28.825-14.967,4.989-7.761,14.413-7.206,11.641-3.326,24.391,7.206c0,0,15.521,6.652,21.065,9.978s11.641,3.326,12.2,8.869c.111,1.114-.493,3.259-1.53,5.97C935,402.5,925.4,420.079,923.9,422.818c-.133.238-.205.366-.205.366s-.288,9.967.017,21.636v.028c.3,11.192,1.142,23.947,3.309,31C931.456,490.258,944.759,531.279,939.216,532.387Z" transform="translate(-232.548 -113.795)" fill="#575a89"/>
  <path id="Path_107" data-name="Path 107" d="M916.7,315.659a13.215,13.215,0,0,0-2.193-4.9,26.475,26.475,0,0,0-3.952-11.4,11.963,11.963,0,0,0-3.541-4.087,10.453,10.453,0,0,0-5.571-1.389c-.354-.006-.99.1-1.562.127-.366-.113-.736-.215-1.107-.31-.216-.481-.645-1.884-.765-1.789l-1.617,1.284c-.683-.119-1.37-.211-2.06-.285l-.753-2.148a14.715,14.715,0,0,0-1.068,2.007q-1.029-.05-2.06-.035l-1.374-1.32a1.938,1.938,0,0,1-1.516,1.485c-.632.065-1.262.15-1.889.251h-.153c-3.384-.084-7.024-.236-9.854,1.621a9.71,9.71,0,0,0-3.137,3.56c-.346.235-.694.469-1.031.719a11.264,11.264,0,0,0-2.9,2.877,12.2,12.2,0,0,0-1.284,3.112,29.831,29.831,0,0,0-1.478,10.19,15.124,15.124,0,0,0,3.718,9.438c1.451,1.559,3.3,2.711,4.749,4.268,2.992,3.207,3.553,7.679,6.112,11.072,2.707,3.589,7.647,5.95,11.986,6.627a20.021,20.021,0,0,0,14.915-3.72,9.228,9.228,0,0,0,2.54-2.662c1.506-2.6.868-5.879,1.427-8.835C912.324,325.873,917.612,321.223,916.7,315.659Z" transform="translate(-236.395 -105.699)" fill="#3f3d56"/>
  <path id="Path_108" data-name="Path 108" d="M838.378,558.833s8.315,29.934-2.217,34.369-7.206-33.26-7.206-33.26Z" transform="translate(-232.044 -136.915)" fill="#a0616a"/>
  <path id="Path_109" data-name="Path 109" d="M849.019,471.691s-3.636,53.97-3.077,66.975c-2.993-.859-4.856-1.862-4.678-2.927.554-3.326,6.652-66.52,6.652-72.618s2.217-35.477,2.217-35.477L834.2,396.3c.255-1.552.41-2.467.41-2.467l8.038,16.907,11.364,3.049Z" transform="translate(-232.713 -117.701)" opacity="0.1"/>
  <path id="Path_110" data-name="Path 110" d="M835.315,390.065l-3.88,3.326s-4.989,29.38-4.435,36.586-11.641,116.41-2.217,116.41,19.956-1.663,18.293-5.543,2.768-69.591,2.768-69.591l4.992-57.906Z" transform="translate(-231.199 -117.262)" fill="#575a89"/>
  <path id="Path_111" data-name="Path 111" d="M950.8,395.816c-3.8,9.934-13.393,27.512-14.895,30.25.044-7.09.072-12.107.072-12.107l11.641-23.836,2.494-1.94S950.382,391.115,950.8,395.816Z" transform="translate(-244.557 -117.043)" opacity="0.1"/>
  <path id="Path_112" data-name="Path 112" d="M951.139,543.532c-1.281.255-4.418.776-8.509,1.4-2.123-15.7-7.8-60.844-7.439-65.1.177-2.1.327-12.45.443-23.842.3,11.192,1.142,23.947,3.309,31C943.379,501.4,956.682,542.423,951.139,543.532Z" transform="translate(-244.471 -124.939)" opacity="0.1"/>
  <path id="Path_113" data-name="Path 113" d="M943.918,385.673l8.315,2.217s5.543,61.531,6.1,72.063,7.206,75.389,6.1,78.161-18.293,6.652-18.847,3.88-8.613-65.314-8.187-70.351-2.346-57.145-2.346-57.145Z" transform="translate(-244.457 -116.751)" fill="#575a89"/>
  <path id="Path_114" data-name="Path 114" d="M196.5,305.723l100.725-83.938,101.609-57.431,100.725-55.664L600.284,11.5" transform="translate(-22.882 -1.281)" fill="none" stroke="#3f3d56" stroke-miterlimit="10" stroke-width="1"/>
  <circle id="Ellipse_7" data-name="Ellipse 7" cx="9.719" cy="9.719" r="9.719" transform="translate(161.249 299.141)" fill="#f2f2f2"/>
  <circle id="Ellipse_8" data-name="Ellipse 8" cx="9.719" cy="9.719" r="9.719" transform="translate(261.974 215.204)" fill="#f2f2f2"/>
  <circle id="Ellipse_9" data-name="Ellipse 9" cx="9.719" cy="9.719" r="9.719" transform="translate(363.582 157.773)" fill="#f2f2f2"/>
  <circle id="Ellipse_10" data-name="Ellipse 10" cx="9.719" cy="9.719" r="9.719" transform="translate(464.308 102.109)" fill="#f2f2f2"/>
  <circle id="Ellipse_11" data-name="Ellipse 11" cx="9.719" cy="9.719" r="9.719" transform="translate(565.033 4.918)" fill="#f2f2f2"/>
  <circle id="Ellipse_12" data-name="Ellipse 12" cx="9.719" cy="9.719" r="9.719" transform="translate(163.899 294.723)" fill="none" stroke="#3f3d56" stroke-miterlimit="10" stroke-width="1"/>
  <circle id="Ellipse_13" data-name="Ellipse 13" cx="9.719" cy="9.719" r="9.719" transform="translate(264.624 210.786)" fill="none" stroke="#3f3d56" stroke-miterlimit="10" stroke-width="1"/>
  <circle id="Ellipse_14" data-name="Ellipse 14" cx="9.719" cy="9.719" r="9.719" transform="translate(366.233 153.355)" fill="none" stroke="#3f3d56" stroke-miterlimit="10" stroke-width="1"/>
  <circle id="Ellipse_15" data-name="Ellipse 15" cx="9.719" cy="9.719" r="9.719" transform="translate(466.958 97.691)" fill="none" stroke="#3f3d56" stroke-miterlimit="10" stroke-width="1"/>
  <circle id="Ellipse_16" data-name="Ellipse 16" cx="9.719" cy="9.719" r="9.719" transform="translate(567.683 0.5)" fill="none" stroke="#3f3d56" stroke-miterlimit="10" stroke-width="1"/>
</svg>
