<svg xmlns="http://www.w3.org/2000/svg" width="40" height="40" viewBox="0 0 40 40">
  <g id="icons8-google-48" transform="translate(-4 -4)">
    <path id="Path_1" data-name="Path 1" d="M43.609,20.082H42V20H24v8H35.3a12.011,12.011,0,1,1-3.344-12.961l5.656-5.656a19.953,19.953,0,1,0,5.992,10.7Z" fill="#ffc107"/>
    <path id="Path_2" data-name="Path 2" d="M6.3,14.691l6.574,4.82a11.973,11.973,0,0,1,19.082-4.473l5.656-5.656A19.96,19.96,0,0,0,6.3,14.691Z" fill="#ff3d00"/>
    <path id="Path_3" data-name="Path 3" d="M24,44a19.917,19.917,0,0,0,13.41-5.191L31.219,33.57a11.968,11.968,0,0,1-18.5-5.516L6.2,33.078A19.983,19.983,0,0,0,24,44Z" fill="#4caf50"/>
    <path id="Path_4" data-name="Path 4" d="M43.609,20.082H42V20H24v8H35.3a12.054,12.054,0,0,1-4.09,5.57h0l6.191,5.238A19.361,19.361,0,0,0,44,24,19.953,19.953,0,0,0,43.609,20.082Z" fill="#1976d2"/>
  </g>
</svg>
