<svg xmlns="http://www.w3.org/2000/svg" xmlns:xlink="http://www.w3.org/1999/xlink" width="207.001" height="151.637" viewBox="0 0 207.001 151.637">
  <defs>
    <linearGradient id="linear-gradient" y1="0.5" x2="0.999" y2="0.5" gradientUnits="objectBoundingBox">
      <stop offset="0" stop-color="gray" stop-opacity="0.251"/>
      <stop offset="0.54" stop-color="gray" stop-opacity="0.122"/>
      <stop offset="1" stop-color="gray" stop-opacity="0.102"/>
    </linearGradient>
    <linearGradient id="linear-gradient-2" x1="0.5" y1="1" x2="0.5" y2="0" xlink:href="#linear-gradient"/>
  </defs>
  <g id="undraw_newsletter_vovu" transform="translate(0.001 0.005)">
    <ellipse id="Ellipse_17" data-name="Ellipse 17" cx="72.917" cy="20.833" rx="72.917" ry="20.833" transform="translate(34.703 109.965)" fill="#f5f5f5"/>
    <path id="Path_115" data-name="Path 115" d="M900.705,324.92A30.843,30.843,0,0,0,895.08,357c7.292,19.167-12.5,51.042-12.5,51.042s.208-.031.606-.1c26.529-4.683,39.711-35.025,24.958-57.565C902.668,342,898.157,332.17,900.705,324.92Z" transform="translate(-723.709 -275.166)" fill="#1488ff"/>
    <path id="Path_116" data-name="Path 116" d="M900.705,324.92s-7.292,15.833,0,28.75,1.25,49.167-18.125,54.375" transform="translate(-723.709 -275.166)" fill="none" stroke="#535461" stroke-miterlimit="10" stroke-width="2"/>
    <path id="Path_117" data-name="Path 117" d="M911.217,575.076s-14.74-2.348-16.083,10.863-28.333,15.04-28.333,15.04.175.121.506.337c22.292,14.633,43.6,9.321,40.392-10.11C906.5,583.983,906.592,576.726,911.217,575.076Z" transform="translate(-711.217 -473.078)" fill="#1488ff"/>
    <path id="Path_118" data-name="Path 118" d="M911.217,575.076s-14.74-2.348-16.083,10.863-28.333,15.04-28.333,15.04.175.121.506.337c9.429,6.19,18.683,8.811,26.247,8.284,9.686-.671,16-7.183,14.145-18.395C906.5,583.983,906.592,576.726,911.217,575.076Z" transform="translate(-704.217 -468.078)" fill="#f5f5f5" opacity="0.2"/>
    <path id="Path_119" data-name="Path 119" d="M911.185,575.69s-11.442,2.513-10.5,12.917-17,22.871-33.923,12.981" transform="translate(-711.185 -473.692)" fill="none" stroke="#535461" stroke-miterlimit="10" stroke-width="2"/>
    <path id="Path_120" data-name="Path 120" d="M151.541,86.092a12.921,12.921,0,0,0-4.975.588c-4.285,1.6-6.317,6.825-5.656,11.352s3.377,8.458,6.2,12.06,5.873,7.158,7.419,11.458a9.952,9.952,0,0,1,.348,6.7c-1.208,3.306-4.852,5.154-8.35,5.538s-7.01-.365-10.521-.625a10.953,10.953,0,0,0-4.375.367,11.263,11.263,0,0,0-3.958,2.723c-4.552,4.4-8.2,10.4-7.606,16.7.667,7.142,6.613,12.788,13.125,15.815a33.91,33.91,0,0,1,6.335,3.25c5,3.779,6.123,10.86,5.625,17.113s-2.194,12.51-1.25,18.708a22.557,22.557,0,0,0,12.654,16.761c5.906,2.708,13.3,2.54,18.542-1.292a25.193,25.193,0,0,0,6.171-7.142,61.639,61.639,0,0,0,6.135-12.892c.731-2.148,1.419-4.458,3.125-5.952a9.774,9.774,0,0,1,3.727-1.833c4.025-1.2,8.265-1.535,12.327-2.606s8.15-3.067,10.358-6.635c3.125-5.065,1.667-11.542,1.681-17.5.025-13.575,8.148-25.729,11.146-38.959.979-4.325,1.344-9.11-.844-12.967a16.473,16.473,0,0,0-6.629-5.965c-5.792-3.217-12.375-4.648-18.852-6.042-9-1.933-19.933-2.183-26.911-8.438C169.833,90.372,160.672,86.092,151.541,86.092Z" transform="translate(-120 -86.08)" fill="#1488ff" opacity="0.2"/>
    <g id="Group_115" data-name="Group 115" transform="translate(21.847 6.422)" opacity="0.5">
      <path id="Path_121" data-name="Path 121" d="M267.216,163.059a31.359,31.359,0,0,0-1.517-9.633l-2.5-7.757v-.383c.077-4.969-3.8-7.448-5.288-7.179-1.527.275-5.765-1.85-5.765-1.85v.058a7.937,7.937,0,0,1-.783-1.071,6.8,6.8,0,0,0,1.4-9.621,2.985,2.985,0,0,0,1.006-1.35,3.431,3.431,0,0,0-.481-2.95,5.716,5.716,0,0,0-.833-.994,10.55,10.55,0,0,0-1.554-1.271,11.814,11.814,0,0,0-4.583-2.083,1.908,1.908,0,0,0-.877,0,3.635,3.635,0,0,0-.71.383c-1.142.65-2.563.369-3.879.3s-2.917.3-3.333,1.535a11.286,11.286,0,0,0-.208,1.185,7.328,7.328,0,0,1-1.519,2.5,2.689,2.689,0,0,0-.523,2.742c.162.292.417.56.417.894a2.559,2.559,0,0,1-.208.683,1.445,1.445,0,0,0,.544,1.419,2.311,2.311,0,0,0,.625.477c.66.337,1.421.442,2.094.754a3.439,3.439,0,0,1,.912.625,3.587,3.587,0,0,1,.992,2.59l.14.015v.123c.146.017.3.031.452.038a6.876,6.876,0,0,0,.748.994q-.071.267-.16.542c-.49.34-4.494,3.006-9.048,2.365-4.86-.685-7.64,20.565-7.64,20.565a24.3,24.3,0,0,0-.262,3.671c-.021,3.125.635,7.215,4.292,6.613l1.944-.64v10.51a10.407,10.407,0,0,1-.694,4.792c-.971,1.913,3.056,1.233,3.056,1.233s.154.16.438.433l-.09.252.119.121a27.56,27.56,0,0,1-2.131,5.227l.115.058c-.073.14-.115.208-.115.208s1.5.765,3.554,1.75c1.654,5.592,5.275,18.542,4.083,21.008l.033.071h0a12.1,12.1,0,0,1,1.217,5.688c-.227,2.233,2.865,12.381,4.019,16.067l-.546.11,1.944,6.992-.417,4.525s-2.36,6.306,3.194,5.073a4.881,4.881,0,0,0,4.027-6.306l.14-10.283s-.535-.3-1.2-.583a21.313,21.313,0,0,1-1.444-6.133c0-2.6-1.806-13.848-1.806-13.848v-.079l-.01-.15v-.025c0-.14-.023-.331-.04-.565v-.013c-.208-3.04-.833-13.367-.377-18.75a12.031,12.031,0,0,1,1.25-.746c1.352,3.417,4.838,12.648,4.615,16.521-.277,4.792-.069,1.029,0,.417.021-.19.035.04.042.554V213.5c0,.417,0,.879-.015,1.36v.292c0,.294,0,.594-.015.9,0,.417-.017.821-.025,1.24-.021.938-.048,1.885-.081,2.773q0,.148-.01.294-.01.292-.023.571t-.025.546q-.012.265-.027.515c-.01.2-.023.383-.033.563l-.754-.108-.16,1.733a18.846,18.846,0,0,0,1.042,8.125c.258.712.458,1.3.5,1.512.14.685,0,5.625,0,5.625s.833,6.444,4.723,5.208c1.75-.556,2.6-2.248,3.006-3.944a9.779,9.779,0,0,0-.481-5.89,8.512,8.512,0,0,1-.719-4.837,29.947,29.947,0,0,0,.694-6.306l-.429-.06a6.842,6.842,0,0,0,.29-.625s-.14-9.46,1.11-10.694c.688-.679.625-2.31.417-3.644a24.931,24.931,0,0,1-.208-5.833,9.274,9.274,0,0,1,.352-2.185c.367-.725.733-8.033-.89-11.55l.333-.1-.052-.258.052-.017a20.424,20.424,0,0,0,.833,1.919.762.762,0,0,0,.277.138c4.5-.79,4.679-4.988,4.429-7.279.19.092.294.15.294.15l.417-6.042a8.734,8.734,0,0,0,.575-3.527C269.5,169.3,267.216,163.059,267.216,163.059Zm-4.958,17.173c-.308-2.631-.735-5.108-.735-5.108l-2.083-7.4v-2.7l3.3,12.333Z" transform="translate(-224.868 -116.925)" fill="url(#linear-gradient)"/>
    </g>
    <path id="Path_122" data-name="Path 122" d="M358.507,614.93l-.154,1.694a18.64,18.64,0,0,0,1.01,7.948c.248.7.442,1.273.483,1.479.133.671,0,5.494,0,5.494s.8,6.3,4.556,5.092c1.688-.542,2.5-2.2,2.9-3.854a9.675,9.675,0,0,0-.467-5.754,8.4,8.4,0,0,1-.694-4.727,29.569,29.569,0,0,0,.671-6.163Z" transform="translate(-308.636 -504.757)" fill="#5a5773"/>
    <path id="Path_123" data-name="Path 123" d="M340.09,457.526s5.225,12.729,4.956,17.417-.067,1,0,.4c.119-1.073,0,11.667-.4,13.125,0,0,5.494,4.019,7.638-1.34,0,0-.133-9.244,1.071-10.45.663-.662.6-2.258.4-3.56a24.677,24.677,0,0,1-.208-5.694,8.64,8.64,0,0,1,.34-2.135c.4-.8.8-9.915-1.608-12.46Z" transform="translate(-294.239 -376.428)" fill="#605d82"/>
    <path id="Path_124" data-name="Path 124" d="M345.323,488.523c.4-1.473.521-14.2.4-13.125-.067.6-.269,4.288,0-.4s-4.956-17.417-4.956-17.417l11.69-4.5c-.054-.069-.11-.133-.167-.194L340.1,457.58s5.225,12.729,4.956,17.417-.067,1,0,.4c.119-1.073,0,11.667-.4,13.125a7.656,7.656,0,0,0,4.35,1.433A8.257,8.257,0,0,1,345.323,488.523Z" transform="translate(-294.247 -376.475)" opacity="0.1"/>
    <path id="Path_125" data-name="Path 125" d="M318.22,669.341l1.875,6.833-.4,4.421s-2.277,6.163,3.081,4.956a4.78,4.78,0,0,0,3.885-6.163l.133-10.048s-2.144-1.206-3.081-1.071S318.22,669.341,318.22,669.341Z" transform="translate(-276.925 -546.975)" fill="#5a5773"/>
    <path id="Path_126" data-name="Path 126" d="M273.85,459.94s6.163,19.963,4.69,23.044a12.115,12.115,0,0,1,1.206,5.625c-.267,2.677,4.288,17.015,4.288,17.015l6.7-1.206s-1.608-4.019-1.608-6.565-1.742-13.542-1.742-13.542-1.473-20.1.269-22.242Z" transform="translate(-241.799 -382.056)" fill="#605d82"/>
    <g id="Group_116" data-name="Group 116" transform="translate(32.051 77.884)" opacity="0.1">
      <path id="Path_127" data-name="Path 127" d="M335.833,478c-1.11,4.55.117,21.294.117,21.294s1.742,10.985,1.742,13.542a20.921,20.921,0,0,0,1.379,5.96l.362-.065s-1.608-4.019-1.608-6.565-1.742-13.542-1.742-13.542S334.962,483.323,335.833,478Z" transform="translate(-322.552 -474.237)"/>
      <path id="Path_128" data-name="Path 128" d="M296.36,570.02l.033.069c.01-.069.021-.142.027-.208A1.478,1.478,0,0,1,296.36,570.02Z" transform="translate(-291.67 -546.976)"/>
      <path id="Path_129" data-name="Path 129" d="M287.348,462.728a1.973,1.973,0,0,1,.3-.644l-13.8-2.144s.081.26.221.725Z" transform="translate(-273.85 -459.94)"/>
    </g>
    <path id="Path_130" data-name="Path 130" d="M404.993,421.141s2.01,7.5-4.019,8.575a.733.733,0,0,1-.269-.133s-3.483-6.833-.8-9.513Z" transform="translate(-340.787 -350.493)" fill="#a1616a"/>
    <path id="Path_131" data-name="Path 131" d="M291.269,186s.4,5.625-4.019,8.306,9.375,10.048,9.375,10.048l7.235-11.523s-3.079.4-4.954-4.956Z" transform="translate(-251.716 -165.188)" fill="#a1616a"/>
    <path id="Path_132" data-name="Path 132" d="M268.231,227.78s6.833,14.2,13,.8l9.513,47.159s-14.74,4.556-14.871,6.7S261,276.951,261,276.951s3.215-5.9,2.413-9.513S268.231,227.78,268.231,227.78Z" transform="translate(-231.626 -198.263)" opacity="0.1"/>
    <path id="Path_133" data-name="Path 133" d="M268.231,226.49s6.833,14.2,13,.8l9.513,47.161s-14.74,4.556-14.871,6.7S261,275.661,261,275.661s3.215-5.9,2.413-9.513S268.231,226.49,268.231,226.49Z" transform="translate(-231.626 -197.242)" fill="#e1e7ef"/>
    <path id="Path_134" data-name="Path 134" d="M326.443,676.7s-1.742-3.885,2.277-3.885,3.35,3.483,3.35,3.483Z" transform="translate(-283.138 -550.578)" fill="#5a5773"/>
    <path id="Path_135" data-name="Path 135" d="M370.393,626.915s-1.608-4.154,2.413-4.287,2.01,3.75,2.01,3.75Z" transform="translate(-317.977 -510.848)" fill="#5a5773"/>
    <path id="Path_136" data-name="Path 136" d="M355.2,212s4.085,2.083,5.56,1.808,5.358,2.277,5.092,7.369l2.421,7.6a31.021,31.021,0,0,1,1.458,9.419h0s3.483,9.646,1.608,13.933l-.4,5.9a10.841,10.841,0,0,0-6.3-1.206l.81-4.815-3.625-13.669-6.029-14.6Z" transform="translate(-306.201 -185.771)" opacity="0.1"/>
    <path id="Path_137" data-name="Path 137" d="M355.2,210.73s4.085,2.083,5.56,1.808,5.358,2.277,5.092,7.369l2.421,7.6a31.021,31.021,0,0,1,1.458,9.419h0s3.483,9.646,1.608,13.933l-.4,5.9a10.841,10.841,0,0,0-6.3-1.206l.8-4.823-3.619-13.665-6.023-14.6Z" transform="translate(-306.201 -184.765)" fill="#67647e"/>
    <path id="Path_138" data-name="Path 138" d="M361.967,245.336v15.14l2.01,7.235s1.34,7.9.938,10.317-6.833,2.948-8.575.938-.8-19.167-.8-19.167l-.335-25.115.269-.8Z" transform="translate(-306.201 -203.092)" opacity="0.1"/>
    <path id="Path_139" data-name="Path 139" d="M363.287,245.158V260.3l2.01,7.235s1.34,7.9.938,10.317-6.833,2.948-8.575.938-.8-19.167-.8-19.167L356.52,234.5Z" transform="translate(-307.246 -203.583)" fill="#67647e"/>
    <path id="Path_140" data-name="Path 140" d="M259.38,245.814l4.288,13.333-2.01,5.694s9.513,10.048,15.542,5.225c0,0,.671-20.5-.671-25.323s-7.771-21.042-7.771-21.042l-1.331-4.281-7.1,4.019Z" transform="translate(-230.343 -191.645)" opacity="0.1"/>
    <path id="Path_141" data-name="Path 141" d="M254.664,242.546v13.125a10.291,10.291,0,0,1-.671,4.69c-.94,1.875,2.948,1.206,2.948,1.206s9.513,10.048,15.542,5.225c0,0,.671-20.5-.671-25.323s-7.771-21.042-7.771-21.042l-1.34-4.288-7.1,4.019Z" transform="translate(-225.963 -189.048)" fill="#67647e"/>
    <path id="Path_142" data-name="Path 142" d="M245.3,204.95s-4.085,3.015-8.775,2.344-7.369,20.1-7.369,20.1-1.742,10.719,3.885,9.781l12.46-4.154a8.9,8.9,0,0,1-2.277-6.431L237.19,229l.271-11.521Z" transform="translate(-206.212 -180.19)" opacity="0.1"/>
    <path id="Path_143" data-name="Path 143" d="M230.432,308.324s-1.742,10.719,3.885,9.781l12.46-4.154a8.892,8.892,0,0,1-2.277-6.431l-6.027,2.413Z" transform="translate(-207.225 -261.391)" opacity="0.1"/>
    <path id="Path_144" data-name="Path 144" d="M297.51,300.714s4.181-5.5,7.26-2.858-6.156,7.477-6.156,7.477Z" transform="translate(-260.53 -253.172)" fill="#a1616a"/>
    <path id="Path_145" data-name="Path 145" d="M245.3,203.66s-4.085,3.015-8.775,2.344-7.369,20.1-7.369,20.1-1.742,10.719,3.885,9.781l12.46-4.154a8.9,8.9,0,0,1-2.277-6.431l-6.031,2.413.271-11.523,6.833-5.625Z" transform="translate(-206.212 -179.168)" fill="#67647e"/>
    <path id="Path_146" data-name="Path 146" d="M317.884,189.135l-7.638-1.875s.4.45-.067,2.21c1.229,1.41,2.74,3.283,4.756,3.283a6.667,6.667,0,0,0,4-1.327A12.044,12.044,0,0,1,317.884,189.135Z" transform="translate(-270.56 -166.185)" opacity="0.1"/>
    <circle id="Ellipse_18" data-name="Ellipse 18" cx="6.7" cy="6.7" r="6.7" transform="translate(37.543 12.902)" fill="#a1616a"/>
    <path id="Path_147" data-name="Path 147" d="M290.837,130.162c1.554-.265,3.263-.954,3.783-2.442a3.387,3.387,0,0,0-.465-2.883,7.889,7.889,0,0,0-2.169-2.083,11.251,11.251,0,0,0-4.429-2.033,1.819,1.819,0,0,0-.846,0,3.492,3.492,0,0,0-.685.375c-1.1.635-2.473.36-3.75.294s-2.808.294-3.21,1.5c-.125.373-.117.775-.208,1.158A7.42,7.42,0,0,1,277.4,126.5a2.672,2.672,0,0,0-.5,2.679c.156.285.417.548.417.873a2.707,2.707,0,0,1-.208.669,1.636,1.636,0,0,0,1,1.719c.638.329,1.371.431,2.021.738a3.542,3.542,0,0,1,1.973,3.279,1.92,1.92,0,0,0,1.681-.338c.179-.2.267-.462.429-.673a4.55,4.55,0,0,1,.8-.658c1.4-1.152.406-2.744,1.2-3.985.417-.64,1.079-.444,1.75-.433A15.463,15.463,0,0,0,290.837,130.162Z" transform="translate(-244.054 -113.469)" opacity="0.1"/>
    <path id="Path_148" data-name="Path 148" d="M290.2,129.522c1.554-.265,3.263-.954,3.783-2.442a3.387,3.387,0,0,0-.465-2.883,7.89,7.89,0,0,0-2.169-2.083,11.251,11.251,0,0,0-4.429-2.033,1.819,1.819,0,0,0-.846,0,3.492,3.492,0,0,0-.685.375c-1.1.635-2.473.36-3.75.294s-2.808.294-3.21,1.5c-.125.373-.117.775-.208,1.158a7.42,7.42,0,0,1-1.458,2.448,2.672,2.672,0,0,0-.5,2.679c.156.285.417.548.417.873a2.709,2.709,0,0,1-.208.669,1.636,1.636,0,0,0,1,1.719c.638.329,1.371.431,2.021.738a3.542,3.542,0,0,1,1.979,3.288,1.92,1.92,0,0,0,1.681-.338c.179-.2.267-.462.429-.673a4.55,4.55,0,0,1,.8-.658c1.4-1.152.406-2.744,1.2-3.985.417-.64,1.079-.444,1.75-.433A15.462,15.462,0,0,0,290.2,129.522Z" transform="translate(-243.548 -112.962)" fill="#4a4347"/>
    <path id="Path_149" data-name="Path 149" d="M382.85,273.76s1.473,7.638.8,10.585a9.823,9.823,0,0,0,.175,5.192" transform="translate(-328.09 -234.664)" opacity="0.1"/>
    <path id="Path_150" data-name="Path 150" d="M267.834,289.19s-.642,5.092.427,6.163" transform="translate(-236.885 -246.879)" opacity="0.1"/>
    <path id="Path_151" data-name="Path 151" d="M446.943,588.005a.313.313,0,1,0-.312-.312A.313.313,0,0,0,446.943,588.005Z" transform="translate(-378.583 -482.946)"/>
    <g id="Group_117" data-name="Group 117" transform="translate(50.649 24.73)" opacity="0.5">
      <path id="Path_152" data-name="Path 152" d="M477.054,248.726v-.173l-56.842-43.709a.208.208,0,0,0-.248,0L363.12,248.553V316.3h.108v.108H477.164v-67.75Z" transform="translate(-363.12 -204.804)" fill="url(#linear-gradient-2)"/>
    </g>
    <path id="Path_153" data-name="Path 153" d="M362.581,235.559h-110V170.142l55-42.292,55,42.292Z" transform="translate(-199.96 -101.219)" fill="#fff"/>
    <path id="Path_154" data-name="Path 154" d="M373.664,246.407H271.58V185.7l51.042-39.248L373.664,185.7Z" transform="translate(-215.001 -115.944)" fill="#e0e0e0"/>
    <rect id="Rectangle_44" data-name="Rectangle 44" width="64.375" height="81.875" transform="translate(62.665 45.924) rotate(-14.69)" fill="#1488ff"/>
    <rect id="Rectangle_45" data-name="Rectangle 45" width="64.375" height="81.875" transform="translate(75.745 41.631)" fill="#f5f5f5"/>
    <path id="Path_155" data-name="Path 155" d="M255.08,331.35l55,32.708-55,32.708Z" transform="translate(-201.939 -262.323)" opacity="0.05"/>
    <path id="Path_156" data-name="Path 156" d="M253.08,331.35l55,32.708-55,32.708Z" transform="translate(-200.356 -262.323)" fill="#fff"/>
    <path id="Path_157" data-name="Path 157" d="M570.08,331.35l-55,32.708,55,32.708Z" transform="translate(-407.772 -262.323)" opacity="0.05"/>
    <path id="Path_158" data-name="Path 158" d="M572.08,331.35l-55,32.708,55,32.708Z" transform="translate(-409.355 -262.323)" fill="#fff"/>
    <path id="Path_159" data-name="Path 159" d="M253.08,477.267l55-42.917,55,42.917Z" transform="translate(-200.356 -343.864)" opacity="0.05"/>
    <path id="Path_160" data-name="Path 160" d="M253.08,482.267l55-42.917,55,42.917Z" transform="translate(-200.356 -347.823)" fill="#fff"/>
    <path id="Path_161" data-name="Path 161" d="M422.6,641.541s-2.763-9.375.519-16.279a14.811,14.811,0,0,0,1.2-9.292A24.912,24.912,0,0,0,423,611.61" transform="translate(-358.696 -502.128)" fill="none" stroke="#535461" stroke-miterlimit="10" stroke-width="2"/>
    <path id="Path_162" data-name="Path 162" d="M422.617,582.753c0,1.15-2.083,4.481-2.083,4.481s-2.083-3.333-2.083-4.481a2.083,2.083,0,1,1,4.167,0Z" transform="translate(-356.274 -477.634)" fill="#1488ff"/>
    <path id="Path_163" data-name="Path 163" d="M439.1,609.316c-.625.965-4.183,2.631-4.183,2.631s.065-3.929.69-4.894a2.083,2.083,0,0,1,3.494,2.263Z" transform="translate(-369.312 -497.83)" fill="#1488ff"/>
    <path id="Path_164" data-name="Path 164" d="M435.47,658.317c-1.027.517-4.94.16-4.94.16s2.04-3.358,3.065-3.875a2.083,2.083,0,1,1,1.875,3.717Z" transform="translate(-365.837 -535.954)" fill="#1488ff"/>
    <path id="Path_165" data-name="Path 165" d="M426.4,698.784c-.925.683-4.842.992-4.842.992s1.442-3.654,2.367-4.338a2.083,2.083,0,0,1,2.475,3.346Z" transform="translate(-358.736 -568.215)" fill="#1488ff"/>
    <path id="Path_166" data-name="Path 166" d="M411.77,621.6c.833.8,4.665,1.631,4.665,1.631s-.94-3.815-1.765-4.615a2.083,2.083,0,0,0-2.9,2.985Z" transform="translate(-350.54 -507.26)" fill="#1488ff"/>
    <path id="Path_167" data-name="Path 167" d="M399.4,666.311c1.027.517,4.94.16,4.94.16s-2.04-3.358-3.065-3.875a2.083,2.083,0,0,0-1.875,3.717Z" transform="translate(-340.346 -542.346)" fill="#1488ff"/>
    <path id="Path_168" data-name="Path 168" d="M395.927,712.928c.925.683,4.842.992,4.842.992s-1.442-3.654-2.367-4.338a2.083,2.083,0,1,0-2.475,3.346Z" transform="translate(-337.709 -579.317)" fill="#1488ff"/>
    <rect id="Rectangle_46" data-name="Rectangle 46" width="25.833" height="2.083" transform="translate(79.495 45.381)" fill="#1488ff" opacity="0.5"/>
    <rect id="Rectangle_47" data-name="Rectangle 47" width="55.834" height="2.083" transform="translate(79.495 53.715)" fill="#1488ff" opacity="0.5"/>
    <rect id="Rectangle_48" data-name="Rectangle 48" width="55.834" height="2.083" transform="translate(79.495 59.131)" fill="#1488ff" opacity="0.5"/>
    <rect id="Rectangle_49" data-name="Rectangle 49" width="55.834" height="2.083" transform="translate(79.495 64.548)" fill="#1488ff" opacity="0.4"/>
    <rect id="Rectangle_50" data-name="Rectangle 50" width="55.834" height="2.083" transform="translate(79.495 69.965)" fill="#1488ff" opacity="0.4"/>
    <rect id="Rectangle_51" data-name="Rectangle 51" width="31.875" height="2.083" transform="translate(79.495 75.382)" fill="#1488ff" opacity="0.3"/>
    <rect id="Rectangle_52" data-name="Rectangle 52" width="43.542" height="2.083" transform="translate(79.495 80.798)" fill="#1488ff" opacity="0.3"/>
  </g>
</svg>
