<svg xmlns="http://www.w3.org/2000/svg" width="765" height="594.904" viewBox="0 0 765 594.904">
  <g id="undraw_futuristic_interface_4q3p" transform="translate(0.154)">
    <path id="Path_88" data-name="Path 88" d="M319.181,550.714,607.113,0H31.25L319.181,550.714,607.113,0H31.25Z" transform="translate(-4.609)" fill="#1488ff"/>
    <rect id="Rectangle_34" data-name="Rectangle 34" width="78" height="79" transform="translate(275.846 486.534)" fill="#3f3d56"/>
    <path id="Path_89" data-name="Path 89" d="M499.835,417.752c-81.792,0-148.335-66.543-148.335-148.335s66.543-148.335,148.335-148.335S648.17,187.625,648.17,269.417,581.627,417.752,499.835,417.752Zm0-292.407c-79.442,0-144.072,64.63-144.072,144.072s64.63,144.072,144.072,144.072,144.072-64.631,144.072-144.072S579.277,125.344,499.835,125.344Z" transform="translate(-181 -104.032)" fill="#f4f5f7"/>
    <path id="Path_90" data-name="Path 90" d="M506.03,388.142a112.53,112.53,0,1,1,112.53-112.53A112.657,112.657,0,0,1,506.03,388.142Zm0-222.5A109.972,109.972,0,1,0,616,275.612,109.972,109.972,0,0,0,506.03,165.639Z" transform="translate(-187.195 -110.227)" fill="#f4f5f7"/>
    <path id="Path_91" data-name="Path 91" d="M519.3,324.692a35.8,35.8,0,1,1,35.8-35.8,35.8,35.8,0,0,1-35.8,35.8Zm0-69.9a34.1,34.1,0,1,0,34.1,34.1A34.1,34.1,0,0,0,519.3,254.787Z" transform="translate(-200.47 -123.502)" fill="#f4f5f7"/>
    <path id="Path_92" data-name="Path 92" d="M509.452,245.082A34.952,34.952,0,0,0,474.5,280.034h34.952Z" transform="translate(-199.143 -122.322)" fill="#3f3d56"/>
    <path id="Path_93" data-name="Path 93" d="M474.5,304.082a34.952,34.952,0,0,0,34.952,34.952V304.082Z" transform="translate(-199.143 -131.025)" fill="#3f3d56" opacity="0.3"/>
    <path id="Path_94" data-name="Path 94" d="M532.5,245.082v34.952h34.952A34.952,34.952,0,0,0,532.5,245.082Z" transform="translate(-207.698 -122.322)" fill="#3f3d56" opacity="0.3"/>
    <path id="Path_95" data-name="Path 95" d="M532.5,335.034a34.952,34.952,0,0,0,34.952-34.952H532.5Z" transform="translate(-207.698 -130.435)" fill="#3f3d56"/>
    <path id="Path_96" data-name="Path 96" d="M415.139,138.076l-1.545-.721L431.726,98.5H549.061v1.7H432.812Z" transform="translate(-61.006 -14.529)" fill="#f4f5f7"/>
    <rect id="Rectangle_35" data-name="Rectangle 35" width="67" height="5" transform="translate(449.846 46.534)" fill="#f4f5f7"/>
    <rect id="Rectangle_36" data-name="Rectangle 36" width="67" height="6" transform="translate(449.846 57.534)" fill="#f4f5f7"/>
    <rect id="Rectangle_37" data-name="Rectangle 37" width="67" height="5" transform="translate(449.846 69.534)" fill="#f4f5f7"/>
    <rect id="Rectangle_38" data-name="Rectangle 38" width="66" height="5" transform="translate(285.846 328.534)" fill="#f4f5f7"/>
    <rect id="Rectangle_39" data-name="Rectangle 39" width="66" height="5" transform="translate(285.846 339.534)" fill="#f4f5f7"/>
    <rect id="Rectangle_40" data-name="Rectangle 40" width="66" height="5" transform="translate(285.846 350.534)" fill="#f4f5f7"/>
    <path id="Path_97" data-name="Path 97" d="M442.335,399.454h-1.7V266.708l-19.48-31.336,1.449-.9,19.735,31.749Z" transform="translate(-62.12 -34.585)" fill="#f4f5f7"/>
    <path id="Path_98" data-name="Path 98" d="M303.7,399.454H302V266.221l19.736-31.749,1.448.9L303.7,266.708Z" transform="translate(-44.545 -34.585)" fill="#f4f5f7"/>
    <rect id="Rectangle_41" data-name="Rectangle 41" width="765" height="2" transform="translate(-0.154 564.534)" fill="#2f2e41"/>
    <ellipse id="Ellipse_4" data-name="Ellipse 4" cx="52.469" cy="13.275" rx="52.469" ry="13.275" transform="translate(535.638 375.628)" fill="#2f2e41"/>
    <path id="Path_99" data-name="Path 99" d="M816.087,350.014s-.632,25.286-5.689,28.447,8.85,12.643,8.85,12.643l20.861-3.793,13.275-16.436s-9.482-11.379-6.322-20.861Z" transform="translate(-248.525 -137.8)" fill="#ffb6b6"/>
    <path id="Path_100" data-name="Path 100" d="M816.087,350.014s-.632,25.286-5.689,28.447,8.85,12.643,8.85,12.643l20.861-3.793,13.275-16.436s-9.482-11.379-6.322-20.861Z" transform="translate(-248.525 -137.8)" opacity="0.1"/>
    <path id="Path_101" data-name="Path 101" d="M781.877,378.934s-10.747,4.425-11.379,19.6,0,59.423,0,59.423l18.333-1.264Z" transform="translate(-242.761 -142.066)" fill="#f0f0f0"/>
    <rect id="Rectangle_42" data-name="Rectangle 42" width="1.264" height="171.254" transform="translate(618.773 396.256) rotate(-7.637)" fill="#2f2e41"/>
    <rect id="Rectangle_43" data-name="Rectangle 43" width="1.264" height="168.152" transform="matrix(0.996, -0.086, 0.086, 0.996, 597.907, 398.751)" fill="#2f2e41"/>
    <rect id="Rectangle_44" data-name="Rectangle 44" width="193.935" height="1.265" transform="translate(541.693 565.854) rotate(-84.79)" fill="#2f2e41"/>
    <rect id="Rectangle_45" data-name="Rectangle 45" width="1.264" height="197.088" transform="translate(574.387 369.599) rotate(-2.059)" fill="#2f2e41"/>
    <path id="Path_102" data-name="Path 102" d="M752.4,503.16s-72.7,5.057-60.687,29.079,70.17,64.48,70.17,64.48,10.747,2.529,12.643,3.161S805.5,580.916,805.5,580.916s-17.7-10.747-25.919-12.643-31.608-22.126-31.608-22.126l65.745-16.436-38.562-32.872Z" transform="translate(-230.984 -159.457)" fill="#2f2e41"/>
    <path id="Path_103" data-name="Path 103" d="M825.37,522.792s-41.723,59.021-33.5,82.3,2.528,100.4,2.528,100.4,30.976,10.115,30.976,0,8.85-81.549,0-105.571c0,0,1.9-15.172,6.954-17.7S855.082,556.3,855.082,556.3s18.965-8.85,16.436-17.068S825.37,522.792,825.37,522.792Z" transform="translate(-245.797 -163.285)" fill="#2f2e41"/>
    <path id="Path_104" data-name="Path 104" d="M856.713,330.067a25.286,25.286,0,1,1-25.286-25.287A25.286,25.286,0,0,1,856.713,330.067Z" transform="translate(-248.06 -131.128)" fill="#ffb6b6"/>
    <path id="Path_105" data-name="Path 105" d="M844.084,364.1s37.93,15.8,32.24,36.033S858.623,507.6,840.291,507.6,783.4,497.489,780.868,493.7s9.482-80.917,9.482-80.917,14.525-47.023,19.906-43.108c0,0-3.469,20.35,14.863,15.293S844.084,364.1,844.084,364.1Z" transform="translate(-244.281 -139.878)" fill="#f0f0f0"/>
    <path id="Path_106" data-name="Path 106" d="M806.7,364.1s-32.04,4.425-30.776,11.379l-2.529,26.551,10.115,53.734-1.264,17.7-30.976,10.747,36.665,10.747s15.172-72.7,12.643-86.606S806.7,364.1,806.7,364.1Z" transform="translate(-239.966 -139.878)" fill="#3f3d56"/>
    <path id="Path_107" data-name="Path 107" d="M847.209,361.477s34.487,19.94,37.015,26.261,0,67.009,0,67.009,4.425,56.895-8.218,71.434c0,0,4.425-7.586-18.965-7.586s-34.769-4.425-35.4-5.057-12.643,0-12.643,0-4.425-90.4,10.115-106.835S849.388,371.248,847.209,361.477Z" transform="translate(-248.388 -139.491)" fill="#3f3d56"/>
    <path id="Path_108" data-name="Path 108" d="M771.958,517.194v7.586s-25.287,23.39-15.172,29.711S786.5,531.733,786.5,531.733l2.382-16.9Z" transform="translate(-240.428 -162.112)" fill="#ffb6b6"/>
    <path id="Path_109" data-name="Path 109" d="M771.958,517.194v7.586s-25.287,23.39-15.172,29.711S786.5,531.733,786.5,531.733l2.382-16.9Z" transform="translate(-240.428 -162.112)" opacity="0.1"/>
    <path id="Path_110" data-name="Path 110" d="M785.287,609.371l6.954,10.115s-24.022,36.665-13.275,40.458,57.527-41.723,56.895-45.516S813.1,595.463,813.1,595.463Z" transform="translate(-243.644 -174.004)" fill="#2f2e41"/>
    <path id="Path_111" data-name="Path 111" d="M793.721,731.165l-5.689,25.286s-22.126,29.079-12.011,31.608,32.872-.632,36.033-7.586,6.954-16.436,12.011-24.022-4.425-25.286-4.425-25.286Z" transform="translate(-243.227 -194.02)" fill="#2f2e41"/>
    <path id="Path_112" data-name="Path 112" d="M774.971,458.279l-4.425,11.379,1.9,43.619s15.8-6.322,20.861,0l-4.425-43.619-6.954-11.379Z" transform="translate(-242.81 -153.769)" fill="#f0f0f0"/>
    <path id="Path_113" data-name="Path 113" d="M795.684,522.792l-12.011,3.794s-46.78,15.172-25.919,25.919,32.872-6.954,32.872-6.954l8.218-6.322Z" transform="translate(-240.133 -163.285)" fill="#ffb6b6"/>
    <path id="Path_114" data-name="Path 114" d="M873.144,394.362s-17.068,8.218-19.6,30.344-5.689,51.2-5.689,51.2l-31.608,20.861s-21.616-.858-18.394,7.157,3.854,25.083,9.543,22.555,13.908-17.7,22.126-18.333,42.355-13.908,46.148-29.079,18.333-66.377,12.011-73.963S878.2,391.2,873.144,394.362Z" transform="translate(-246.79 -144.219)" fill="#f0f0f0"/>
    <path id="Path_115" data-name="Path 115" d="M805.376,315.534s-10.117-.154-12.323,3.754-1.481,6.741,1.51,6.813,16.916-8.133,16.916-8.133Z" transform="translate(-245.941 -132.714)" fill="#3f3d56"/>
    <path id="Path_116" data-name="Path 116" d="M805.376,315.534s-10.117-.154-12.323,3.754-1.481,6.741,1.51,6.813,16.916-8.133,16.916-8.133Z" transform="translate(-245.941 -132.714)" opacity="0.1"/>
    <path id="Path_117" data-name="Path 117" d="M850.731,327.567l-6.92,6s-6.57,6.092-16.027-3.287-22.833-16.827-28.343-14.582l14.047-5.913,13.651-.378,15.51,6.531Z" transform="translate(-247.072 -131.81)" fill="#3f3d56"/>
    <path id="Path_118" data-name="Path 118" d="M856.937,332.019a86.141,86.141,0,0,0-8.683-8.514c-5.964-5.12-14.4-11.037-23.364-13.109,0,0-9-2.855-15.4-.1l12.38-13.522s6.691-3.8,10.189-2.837c0,0,11.765,2.53,15.094,5.487.094.082.18.166.259.248h0a8.61,8.61,0,0,1,5.244,2.841c3.029,3.461,7.794,10.245,6.761,17.776C857.925,331.163,856.937,332.019,856.937,332.019Z" transform="translate(-248.554 -129.505)" fill="#3f3d56"/>
    <path id="Path_119" data-name="Path 119" d="M850.669,329.322c-25.485-21.475-39.971-16.8-40.114-16.755l-.419-1.193c.609-.215,15.232-5.025,41.348,16.981Z" transform="translate(-248.65 -132.014)" opacity="0.1"/>
    <ellipse id="Ellipse_5" data-name="Ellipse 5" cx="2.529" cy="3.793" rx="2.529" ry="3.793" transform="translate(593.674 169.833) rotate(-60)" fill="#3f3d56"/>
    <ellipse id="Ellipse_6" data-name="Ellipse 6" cx="1.896" cy="3.161" rx="1.896" ry="3.161" transform="translate(602.212 196.4) rotate(-8.311)" fill="#ffb6b6"/>
    <path id="Path_120" data-name="Path 120" d="M831.112,352.866c2.421-4.046-1.309-5.784-1.309-5.784s-8.534-3.11-11.708-4.273-4.659,3.42-4.659,3.42c-.575.272-4.039-2.371-6.473-4.823a25.3,25.3,0,0,0,37.715,15.678l4.476-10.816C842.977,350.386,836.957,352.647,831.112,352.866Zm-3.875,1.524a6.231,6.231,0,0,1-5.9,1.637l.2-1.062s3.666-.183,2.118-1.125a28.987,28.987,0,0,0-5.354-1.953s-1.17-.424.013,1.524l.657.809-.474.771s-3.439-2.01-3.117-5.493c0,0-.36-3.167,3.818-1.644s7.2,2.624,7.2,2.624,3.509,1.283.848,3.913Z" transform="translate(-248.182 -136.53)" fill="#3f3d56"/>
  </g>
</svg>
