<svg xmlns="http://www.w3.org/2000/svg" width="19.652" height="15.962" viewBox="0 0 19.652 15.962">
  <path id="bxl-twitter" d="M19.633,8c.013.175.013.349.013.523A11.382,11.382,0,0,1,8.186,19.981,11.381,11.381,0,0,1,2,18.172a8.417,8.417,0,0,0,.973.05,8.069,8.069,0,0,0,5-1.721,4.036,4.036,0,0,1-3.767-2.793,5.129,5.129,0,0,0,.761.062,4.286,4.286,0,0,0,1.061-.137A4.027,4.027,0,0,1,2.8,9.68V9.63a4.065,4.065,0,0,0,1.82.511A4.034,4.034,0,0,1,3.371,4.755,11.457,11.457,0,0,0,11.677,8.97a4.577,4.577,0,0,1-.1-.923,4.032,4.032,0,0,1,6.971-2.756A7.957,7.957,0,0,0,21.1,4.318a4.02,4.02,0,0,1-1.771,2.22,8.073,8.073,0,0,0,2.319-.624A8.645,8.645,0,0,1,19.633,8Z" transform="translate(-2 -4.019)"/>
</svg>
