<svg xmlns="http://www.w3.org/2000/svg" width="20.014" height="14.012" viewBox="0 0 20.014 14.012">
  <path id="bxl-youtube" d="M21.593,7.2a2.506,2.506,0,0,0-1.762-1.766C18.265,5.007,12,5,12,5s-6.264-.007-7.831.4A2.559,2.559,0,0,0,2.4,7.182,26.5,26.5,0,0,0,1.986,12a26.335,26.335,0,0,0,.406,4.814,2.506,2.506,0,0,0,1.763,1.765c1.582.43,7.83.437,7.83.437s6.265.007,7.831-.4a2.515,2.515,0,0,0,1.767-1.763A26.378,26.378,0,0,0,22,12.034,25.084,25.084,0,0,0,21.593,7.2ZM10,15.005l.005-6,5.207,3.005Z" transform="translate(-1.986 -5)"/>
</svg>
